<svg xmlns="http://www.w3.org/2000/svg" viewBox="0 0 308 87">
  <defs>
    <style>
      .cls-1, .cls-4 {
        fill: #f9f9e9;
      }

      .cls-2 {
        fill: #dcdcc8;
      }

      .cls-3 {
        fill: #89897b;
      }

      .cls-4 {
        stroke: #89897b;
        stroke-miterlimit: 10;
        stroke-width: 0.5px;
      }

      .cls-5, .cls-8 {
        font-size: 40.27px;
        font-family: Calibri, Calibri;
      }

      .cls-6 {
        letter-spacing: -0.01em;
      }

      .cls-7 {
        letter-spacing: 0em;
      }

      .cls-8 {
        letter-spacing: -0.02em;
      }

      .cls-9 {
        letter-spacing: 0em;
      }
    </style>
  </defs>
  <title>Asset 42</title>
  <g id="Layer_2" data-name="Layer 2">
    <g id="Layer_1-2" data-name="Layer 1">
      <g>
        <rect class="cls-1" width="308" height="87"/>
        <g>
          <path class="cls-2" d="M154.46,83.25l.11-61.51a6.33,6.33,0,0,1,6.17-6.47H291.88a6.33,6.33,0,0,1,6.17,6.47l-.11,61.51Z"/>
          <path class="cls-3" d="M291.88,15.52a6.09,6.09,0,0,1,5.92,6.22L297.69,83h-143l.11-61.26a6.08,6.08,0,0,1,5.92-6.22H291.88m0-.5H160.74a6.57,6.57,0,0,0-6.42,6.72l-.11,61.76h144l.11-61.76A6.57,6.57,0,0,0,291.88,15Z"/>
        </g>
        <path id="normal-contrast" class="cls-4" d="M10,83.5V10.22A6.57,6.57,0,0,1,16.4,3.5H147.54A6.57,6.57,0,0,1,154,10.22V83.5"/>
        <rect class="cls-3" x="0.03" y="83" width="9.95" height="0.5"/>
        <rect class="cls-3" x="298.05" y="83" width="9.95" height="0.5"/>
        <text class="cls-5" transform="translate(41.23 57.78) scale(0.96 1)">S<tspan class="cls-6" x="18.5" y="0">t</tspan><tspan x="31.6" y="0">o</tspan><tspan class="cls-7" x="52.84" y="0">r</tspan><tspan x="67.07" y="0">y</tspan></text>
        <text class="cls-8" transform="translate(181.39 63.98) scale(0.96 1)">P<tspan class="cls-9" x="20" y="0">oem</tspan></text>
      </g>
    </g>
  </g>
</svg>
